# Blender v2.80 (sub 75) OBJ File: ''
# www.blender.org
mtllib base.mtl
o Base_Cylinder
v 0.000000 0.000000 -1.000000
v -0.003635 0.122044 -0.882826
v 0.195090 0.000000 -0.980785
v 0.167850 0.122044 -0.865937
v 0.382683 0.000000 -0.923880
v 0.332746 0.122044 -0.815916
v 0.555570 0.000000 -0.831470
v 0.484714 0.122044 -0.734687
v 0.707107 0.000000 -0.707107
v 0.617915 0.122044 -0.625372
v 0.831470 0.000000 -0.555570
v 0.727231 0.122044 -0.492170
v 0.923880 0.000000 -0.382683
v 0.808460 0.122044 -0.340202
v 0.980785 0.000000 -0.195090
v 0.858480 0.122044 -0.175307
v 1.000000 0.000000 -0.000000
v 0.875370 0.122044 -0.003821
v 0.980785 0.000000 0.195090
v 0.858480 0.122044 0.167664
v 0.923880 0.000000 0.382683
v 0.808460 0.122044 0.332559
v 0.831470 0.000000 0.555570
v 0.727231 0.122044 0.484528
v 0.707107 0.000000 0.707107
v 0.617915 0.122044 0.617729
v 0.555570 0.000000 0.831470
v 0.484714 0.122044 0.727045
v 0.382683 0.000000 0.923880
v 0.332745 0.122044 0.808274
v 0.195090 0.000000 0.980785
v 0.167850 0.122044 0.858294
v -0.000000 0.000000 1.000000
v -0.003635 0.122044 0.875184
v -0.195091 0.000000 0.980785
v -0.175121 0.122044 0.858294
v -0.382684 0.000000 0.923879
v -0.340016 0.122044 0.808274
v -0.555571 0.000000 0.831469
v -0.491985 0.122044 0.727045
v -0.707107 0.000000 0.707106
v -0.625186 0.122044 0.617729
v -0.831470 0.000000 0.555570
v -0.734502 0.122044 0.484527
v -0.923880 0.000000 0.382683
v -0.815730 0.122044 0.332559
v -0.980785 0.000000 0.195089
v -0.865751 0.122044 0.167664
v -1.000000 0.000000 -0.000001
v -0.882640 0.122044 -0.003822
v -0.980785 0.000000 -0.195091
v -0.865750 0.122044 -0.175307
v -0.923879 0.000000 -0.382684
v -0.815730 0.122044 -0.340203
v -0.831469 0.000000 -0.555571
v -0.734501 0.122044 -0.492171
v -0.707106 0.000000 -0.707108
v -0.625185 0.122044 -0.625372
v -0.555569 0.000000 -0.831470
v -0.491983 0.122044 -0.734688
v -0.382682 0.000000 -0.923880
v -0.340015 0.122044 -0.815917
v -0.195089 0.000000 -0.980786
v -0.175119 0.122044 -0.865937
vt 1.000000 0.500000
vt 0.968750 1.000000
vt 0.968750 0.500000
vt 0.937500 1.000000
vt 0.937500 0.500000
vt 0.906250 1.000000
vt 0.906250 0.500000
vt 0.875000 1.000000
vt 0.875000 0.500000
vt 0.843750 1.000000
vt 0.843750 0.500000
vt 0.812500 1.000000
vt 0.812500 0.500000
vt 0.781250 1.000000
vt 0.781250 0.500000
vt 0.750000 1.000000
vt 0.750000 0.500000
vt 0.718750 1.000000
vt 0.718750 0.500000
vt 0.687500 1.000000
vt 0.687500 0.500000
vt 0.656250 1.000000
vt 0.656250 0.500000
vt 0.625000 1.000000
vt 0.625000 0.500000
vt 0.593750 0.500000
vt 0.593750 1.000000
vt 0.562500 0.500000
vt 0.562500 1.000000
vt 0.531250 0.500000
vt 0.531250 1.000000
vt 0.500000 0.500000
vt 0.500000 1.000000
vt 0.468750 0.500000
vt 0.468750 1.000000
vt 0.437500 0.500000
vt 0.437500 1.000000
vt 0.406250 0.500000
vt 0.406250 1.000000
vt 0.375000 0.500000
vt 0.375000 1.000000
vt 0.343750 0.500000
vt 0.343750 1.000000
vt 0.312500 0.500000
vt 0.312500 1.000000
vt 0.281250 0.500000
vt 0.281250 1.000000
vt 0.250000 0.500000
vt 0.250000 1.000000
vt 0.218750 0.500000
vt 0.218750 1.000000
vt 0.187500 0.500000
vt 0.187500 1.000000
vt 0.156250 0.500000
vt 0.156250 1.000000
vt 0.125000 0.500000
vt 0.093750 1.000000
vt 0.093750 0.500000
vt 0.062500 1.000000
vt 0.062500 0.500000
vt 0.158156 0.028269
vt 0.471731 0.158156
vt 0.341844 0.471731
vt 0.031250 1.000000
vt 0.031250 0.500000
vt 0.000000 1.000000
vt 0.000000 0.500000
vt 1.000000 1.000000
vt 0.125000 1.000000
vt 0.296822 0.485388
vt 0.250000 0.490000
vt 0.203179 0.485389
vt 0.158156 0.471731
vt 0.116663 0.449553
vt 0.028269 0.341844
vt 0.080295 0.419706
vt 0.050447 0.383337
vt 0.014612 0.296822
vt 0.028269 0.158156
vt 0.010000 0.250000
vt 0.014611 0.203179
vt 0.050447 0.116663
vt 0.080294 0.080294
vt 0.116663 0.050447
vt 0.203178 0.014612
vt 0.250000 0.010000
vt 0.296822 0.014612
vt 0.341844 0.028269
vt 0.383337 0.050447
vt 0.419706 0.080294
vt 0.449553 0.116663
vt 0.485388 0.203178
vt 0.490000 0.250000
vt 0.485388 0.296822
vt 0.471731 0.341844
vt 0.449553 0.383337
vt 0.419706 0.419706
vt 0.383337 0.449553
vn 0.0009 0.6926 -0.7213
vn 0.1391 0.6949 -0.7055
vn 0.1413 0.6950 -0.7050
vn 0.2729 0.6977 -0.6624
vn 0.2752 0.6977 -0.6614
vn 0.3952 0.7006 -0.5941
vn 0.3974 0.7007 -0.5926
vn 0.5014 0.7036 -0.5035
vn 0.5033 0.7037 -0.5015
vn 0.5875 0.7066 -0.3943
vn 0.5890 0.7067 -0.3920
vn 0.6505 0.7095 -0.2709
vn 0.6514 0.7096 -0.2686
vn 0.6883 0.7122 -0.1381
vn 0.6887 0.7122 -0.1359
vn 0.6997 0.7145 -0.0010
vn 0.6996 0.7145 0.0009
vn 0.6845 0.7164 0.1353
vn 0.6842 0.7164 0.1368
vn 0.6435 0.7178 0.2659
vn 0.6431 0.7178 0.2669
vn 0.5783 0.7187 0.3861
vn 0.5780 0.7187 0.3865
vn 0.4915 0.7190 0.4914
vn 0.4914 0.7190 0.4914
vn 0.3864 0.7188 0.5779
vn 0.3860 0.7188 0.5782
vn 0.2667 0.7181 0.6428
vn 0.2659 0.7181 0.6432
vn 0.1367 0.7168 0.6838
vn 0.1353 0.7168 0.6841
vn 0.0009 0.7150 0.6991
vn -0.0010 0.7150 0.6991
vn -0.1358 0.7128 0.6881
vn -0.1380 0.7128 0.6877
vn -0.2683 0.7103 0.6508
vn -0.2706 0.7102 0.6499
vn -0.3916 0.7074 0.5883
vn -0.3939 0.7074 0.5869
vn -0.5010 0.7045 0.5028
vn -0.5029 0.7044 0.5009
vn -0.5919 0.7014 0.3970
vn -0.5935 0.7014 0.3948
vn -0.6607 0.6984 0.2750
vn -0.6618 0.6984 0.2726
vn -0.7044 0.6956 0.1412
vn -0.7049 0.6956 0.1389
vn -0.7208 0.6932 0.0010
vn -0.7208 0.6931 -0.0011
vn -0.7091 0.6911 -0.1403
vn -0.7088 0.6910 -0.1419
vn -0.6694 0.6895 -0.2767
vn -0.6689 0.6895 -0.2778
vn -0.6032 0.6885 -0.4027
vn -0.6029 0.6885 -0.4032
vn -0.5131 0.6881 -0.5131
vn -0.4032 0.6883 -0.6030
vn -0.4028 0.6883 -0.6033
vn -0.2778 0.6892 -0.6692
vn -0.2769 0.6892 -0.6696
vn 0.0000 1.0000 0.0000
vn -0.1419 0.6906 -0.7092
vn -0.1404 0.6906 -0.7095
vn -0.0010 0.6925 -0.7214
usemtl None
s 1
f 1/1/1 4/2/2 3/3/3
f 3/3/3 6/4/4 5/5/5
f 5/5/5 8/6/6 7/7/7
f 7/7/7 10/8/8 9/9/9
f 9/9/9 12/10/10 11/11/11
f 11/11/11 14/12/12 13/13/13
f 13/13/13 16/14/14 15/15/15
f 15/15/15 18/16/16 17/17/17
f 17/17/17 20/18/18 19/19/19
f 19/19/19 22/20/20 21/21/21
f 21/21/21 24/22/22 23/23/23
f 23/23/23 26/24/24 25/25/25
f 26/24/24 27/26/26 25/25/25
f 28/27/27 29/28/28 27/26/26
f 30/29/29 31/30/30 29/28/28
f 32/31/31 33/32/32 31/30/30
f 34/33/33 35/34/34 33/32/32
f 36/35/35 37/36/36 35/34/34
f 38/37/37 39/38/38 37/36/36
f 40/39/39 41/40/40 39/38/38
f 42/41/41 43/42/42 41/40/40
f 44/43/43 45/44/44 43/42/42
f 46/45/45 47/46/46 45/44/44
f 48/47/47 49/48/48 47/46/46
f 50/49/49 51/50/50 49/48/48
f 52/51/51 53/52/52 51/50/50
f 54/53/53 55/54/54 53/52/52
f 56/55/55 57/56/56 55/54/54
f 57/56/56 60/57/57 59/58/58
f 59/58/58 62/59/59 61/60/60
f 38/61/61 22/62/61 6/63/61
f 61/60/60 64/64/62 63/65/63
f 63/65/63 2/66/64 1/67/1
f 1/1/1 2/68/64 4/2/2
f 3/3/3 4/2/2 6/4/4
f 5/5/5 6/4/4 8/6/6
f 7/7/7 8/6/6 10/8/8
f 9/9/9 10/8/8 12/10/10
f 11/11/11 12/10/10 14/12/12
f 13/13/13 14/12/12 16/14/14
f 15/15/15 16/14/14 18/16/16
f 17/17/17 18/16/16 20/18/18
f 19/19/19 20/18/18 22/20/20
f 21/21/21 22/20/20 24/22/22
f 23/23/23 24/22/22 26/24/24
f 26/24/24 28/27/27 27/26/26
f 28/27/27 30/29/29 29/28/28
f 30/29/29 32/31/31 31/30/30
f 32/31/31 34/33/33 33/32/32
f 34/33/33 36/35/35 35/34/34
f 36/35/35 38/37/37 37/36/36
f 38/37/37 40/39/39 39/38/38
f 40/39/39 42/41/41 41/40/40
f 42/41/41 44/43/43 43/42/42
f 44/43/43 46/45/45 45/44/44
f 46/45/45 48/47/47 47/46/46
f 48/47/47 50/49/49 49/48/48
f 50/49/49 52/51/51 51/50/50
f 52/51/51 54/53/53 53/52/52
f 54/53/53 56/55/55 55/54/54
f 56/55/55 58/69/56 57/56/56
f 57/56/56 58/69/56 60/57/57
f 59/58/58 60/57/57 62/59/59
f 6/63/61 4/70/61 2/71/61
f 2/71/61 64/72/61 6/63/61
f 64/72/61 62/73/61 6/63/61
f 62/73/61 60/74/61 54/75/61
f 60/74/61 58/76/61 54/75/61
f 58/76/61 56/77/61 54/75/61
f 54/75/61 52/78/61 46/79/61
f 52/78/61 50/80/61 46/79/61
f 50/80/61 48/81/61 46/79/61
f 46/79/61 44/82/61 38/61/61
f 44/82/61 42/83/61 38/61/61
f 42/83/61 40/84/61 38/61/61
f 38/61/61 36/85/61 34/86/61
f 34/86/61 32/87/61 30/88/61
f 30/88/61 28/89/61 26/90/61
f 26/90/61 24/91/61 22/62/61
f 22/62/61 20/92/61 18/93/61
f 18/93/61 16/94/61 22/62/61
f 16/94/61 14/95/61 22/62/61
f 14/95/61 12/96/61 10/97/61
f 10/97/61 8/98/61 14/95/61
f 8/98/61 6/63/61 14/95/61
f 38/61/61 34/86/61 22/62/61
f 34/86/61 30/88/61 22/62/61
f 30/88/61 26/90/61 22/62/61
f 6/63/61 62/73/61 54/75/61
f 54/75/61 46/79/61 38/61/61
f 22/62/61 14/95/61 6/63/61
f 6/63/61 54/75/61 38/61/61
f 61/60/60 62/59/59 64/64/62
f 63/65/63 64/64/62 2/66/64
